<svg width="224" height="87" viewBox="0 0 224 87" fill="none" xmlns="http://www.w3.org/2000/svg">
<path fill-rule="evenodd" clip-rule="evenodd" d="M3.16848 1.05938V1.05938L3.1702 1.06152L3.17893 1.07229L3.21783 1.11996C3.25329 1.16326 3.30781 1.22945 3.38139 1.31769C3.52855 1.49419 3.75192 1.75891 4.05148 2.10523C4.65061 2.79788 5.55443 3.81685 6.76268 5.10914C7.32846 5.71427 7.29656 6.66348 6.69143 7.22926C6.0863 7.79504 5.13709 7.76314 4.57131 7.15801C3.33551 5.83626 2.40585 4.78846 1.78253 4.06783C1.47086 3.70752 1.23576 3.42898 1.07724 3.23887C0.997989 3.14381 0.937878 3.07086 0.896917 3.02085L0.849836 2.96314L0.837067 2.94738L0.832203 2.94135C0.832203 2.94135 0.831479 2.94045 2.00005 2.00001L0.831479 2.94045C0.312086 2.29507 0.414223 1.35083 1.05961 0.831436C1.7049 0.312121 2.64904 0.414257 3.16848 1.05938ZM12.4513 12.9588C13.0172 12.3538 13.9664 12.322 14.5714 12.8879C16.9621 15.124 19.7281 17.5959 22.8692 20.231C23.5038 20.7635 23.5867 21.7096 23.0543 22.3443C22.5218 22.9789 21.5757 23.0618 20.941 22.5294C17.7567 19.8579 14.9503 17.35 12.5221 15.0789C11.9171 14.513 11.8854 13.5638 12.4513 12.9588ZM29.4172 27.4176C29.9178 26.7576 30.8588 26.6283 31.5188 27.1289C34.304 29.2413 37.2939 31.4096 40.4884 33.6044C41.1712 34.0736 41.3444 35.0074 40.8753 35.6902C40.4062 36.373 39.4723 36.5462 38.7895 36.0771C35.5551 33.8547 32.5272 31.6589 29.7059 29.5192C29.0459 29.0186 28.9166 28.0777 29.4172 27.4176ZM47.7226 40.1664C48.16 39.4628 49.0849 39.247 49.7885 39.6843C52.8092 41.5621 55.9764 43.4396 59.2899 45.2991C60.0123 45.7045 60.2693 46.6188 59.8639 47.3413C59.4585 48.0637 58.5442 48.3207 57.8217 47.9153C54.4681 46.0334 51.2624 44.133 48.2046 42.2322C47.5011 41.7948 47.2853 40.8699 47.7226 40.1664ZM67.0715 51.177C67.4443 50.4372 68.3463 50.1397 69.0861 50.5125C72.2994 52.1319 75.6298 53.7233 79.0774 55.274C79.8329 55.6138 80.1699 56.5018 79.83 57.2573C79.4902 58.0128 78.6022 58.3498 77.8467 58.01C74.3581 56.4408 70.9878 54.8303 67.736 53.1915C66.9962 52.8187 66.6987 51.9168 67.0715 51.177ZM87.3119 60.4273C87.6183 59.6576 88.4906 59.2821 89.2603 59.5885C92.6214 60.9266 96.0805 62.2205 99.6378 63.4602C100.42 63.7328 100.833 64.588 100.561 65.3703C100.288 66.1525 99.4328 66.5657 98.6506 66.2931C95.0515 65.0388 91.5515 63.7297 88.1506 62.3757C87.381 62.0693 87.0054 61.1969 87.3119 60.4273ZM108.313 67.885C108.552 67.0917 109.388 66.642 110.181 66.8806C113.658 67.926 117.219 68.9168 120.865 69.8451C121.668 70.0495 122.153 70.8661 121.948 71.6689C121.744 72.4717 120.927 72.9568 120.125 72.7524C116.437 71.8134 112.835 70.8111 109.317 69.7535C108.524 69.5149 108.074 68.6784 108.313 67.885ZM129.888 73.5122C130.058 72.7015 130.853 72.1823 131.664 72.3526C135.221 73.0999 138.851 73.7861 142.556 74.4048C143.373 74.5412 143.925 75.3143 143.788 76.1314C143.652 76.9485 142.879 77.5003 142.062 77.3638C138.316 76.7382 134.644 76.0443 131.047 75.2885C130.236 75.1182 129.717 74.3229 129.888 73.5122ZM151.844 77.3076C151.947 76.4856 152.697 75.9028 153.519 76.0058C157.126 76.4577 160.797 76.8449 164.534 77.1622C165.359 77.2322 165.972 77.9582 165.902 78.7837C165.831 79.6091 165.106 80.2215 164.28 80.1514C160.504 79.8308 156.792 79.4394 153.146 78.9825C152.324 78.8795 151.741 78.1296 151.844 77.3076ZM210.375 78.9336C210.429 79.7603 209.803 80.474 208.976 80.5278C205.202 80.7735 201.478 80.9482 197.806 81.0555C196.977 81.0797 196.287 80.428 196.262 79.5999C196.238 78.7719 196.89 78.0809 197.718 78.0567C201.355 77.9505 205.042 77.7775 208.781 77.5342C209.608 77.4804 210.322 78.1069 210.375 78.9336ZM174.015 79.3124C174.053 78.4849 174.755 77.8447 175.582 77.8825C179.213 78.0485 182.902 78.1481 186.648 78.1769C187.476 78.1833 188.143 78.86 188.136 79.6884C188.13 80.5168 187.453 81.1832 186.625 81.1768C182.841 81.1477 179.114 81.0471 175.445 80.8794C174.618 80.8415 173.977 80.14 174.015 79.3124Z" fill="#8C97AC"/>
<path fill-rule="evenodd" clip-rule="evenodd" d="M216.984 86.1167L215 84.3491L220.613 79.3487L215 74.3483L216.984 72.5807L223.589 78.4649C224.137 78.9531 224.137 79.7444 223.589 80.2325L216.984 86.1167Z" fill="#8C97AC"/>
</svg>
