<svg width="97" height="95" viewBox="0 0 97 95" fill="none" xmlns="http://www.w3.org/2000/svg">
<rect y="0.443848" width="97" height="93.7853" rx="10" fill="#448CB3"/>
<path d="M45.9041 35.9184V30.0888H68.0267V45.4697H48.1007C45.0753 47.2859 45.282 47.1712 45.0257 47.289H68.9675C69.487 47.289 69.9083 46.8818 69.9083 46.3794V29.1791C69.9083 28.6767 69.487 28.2695 68.9675 28.2695H44.9633C44.4437 28.2695 44.0225 28.6767 44.0225 29.1791V33.7125C44.0225 33.7125 45.7096 34.5766 45.9041 35.9184Z" fill="white"/>
<path d="M56.2919 38.4408L54.7568 39.6111L55.3775 41.0576C55.4784 41.2927 55.6765 41.4763 55.9238 41.5636C56.171 41.6508 56.4449 41.6341 56.6788 41.517L60.7535 39.479L64.8521 42.5678C65.0239 42.6973 65.2276 42.76 65.4298 42.76C65.7099 42.76 65.987 42.6397 66.1725 42.4096C66.492 42.0133 66.4187 41.4418 66.0089 41.1329L61.4351 37.6858C61.1453 37.4675 60.7509 37.4322 60.4244 37.5953L56.7235 39.4464L56.2919 38.4408Z" fill="white"/>
<path d="M54.2933 33.7822C54.1231 33.3853 53.689 33.1577 53.2519 33.2365L50.0461 33.8144L48.6693 31.7035C48.3922 31.2785 47.8111 31.1513 47.3717 31.4192C46.9322 31.6872 46.8006 32.2489 47.0777 32.6738L48.795 35.3071C49.0007 35.6224 49.3841 35.7846 49.7633 35.7161L52.6467 35.1964L54.3447 33.9018L54.2933 33.7822Z" fill="white"/>
<path d="M52.4766 38.9764C52.5531 39.0955 52.6197 39.2178 52.6787 39.3419L56.8291 36.1778C57.2371 35.8668 57.3071 35.2947 56.9853 34.9003C56.6636 34.5058 56.0721 34.438 55.664 34.7492L51.4512 37.9609C51.8535 38.2151 52.2065 38.5556 52.4766 38.9764Z" fill="white"/>
<path d="M36.2111 50.6051C36.2111 50.3702 36.4081 50.1797 36.6512 50.1797C36.8942 50.1797 37.0912 50.3702 37.0912 50.6051V59.2689C37.9573 58.7848 38.9591 58.5048 40.0261 58.4999C39.5267 57.7048 39.2389 56.7723 39.2389 55.7761C39.2389 54.1683 39.9891 52.7275 41.1677 51.7613C41.1677 51.7613 41.132 50.6674 41.1308 38.3327C41.1308 38.1445 41.2874 37.9913 41.4822 37.989C41.6768 37.9867 41.8372 38.1364 41.8418 38.3245C41.8418 38.3246 41.8418 38.3246 41.8418 38.3246C41.8501 39.9096 41.8679 43.3489 41.8731 44.3307C41.8762 44.9254 42.2115 45.472 42.7497 45.7597C43.2879 46.0474 43.9451 46.0314 44.4676 45.7177L50.4871 42.1042C51.284 41.6258 51.5289 40.6132 51.0341 39.8427C50.5393 39.0722 49.492 38.8351 48.695 39.3137L45.2549 41.3789C45.2492 40.294 45.2448 39.4396 45.239 38.3081C45.2279 36.1778 43.4239 34.4412 41.2193 34.4412H39.5146L38.2383 37.7257L37.3685 39.9067L37.8782 37.5854C37.9135 37.4247 37.8879 37.2571 37.806 37.1132L37.1155 35.8988L37.7114 34.7989C37.7539 34.7242 37.7524 34.6332 37.7075 34.5597C37.6626 34.4862 37.5809 34.4412 37.4926 34.4412H35.809C35.7208 34.4412 35.639 34.4862 35.594 34.5597C35.5491 34.6332 35.5477 34.7242 35.5902 34.7989L36.221 35.9011L35.5291 37.1176C35.4488 37.2588 35.4226 37.4229 35.4551 37.581L35.8965 39.9067L35.0968 37.7257L33.787 34.4413H32.0823C29.877 34.4413 28.0738 36.176 28.0627 38.3082L28 50.3734C27.9953 51.2804 28.7519 52.0193 29.69 52.0239C29.693 52.0239 29.6959 52.0239 29.6988 52.0239C30.6328 52.0239 31.3925 51.294 31.3972 50.3899L31.4599 38.3246C31.4609 38.145 31.6121 38 31.7978 38.0004C31.9835 38.0009 32.1339 38.1466 32.1339 38.3263L32.1346 65.932C32.1346 66.9922 33.0005 67.8565 34.086 67.9005L34.1051 64.2227C34.1141 62.481 34.9321 60.9196 36.2111 59.8689V50.6051V50.6051Z" fill="white"/>
<path d="M36.6512 33.3562C38.5954 33.3562 40.1715 31.8324 40.1715 29.9526C40.1715 28.0728 38.5954 26.549 36.6512 26.549C34.707 26.549 33.1309 28.0728 33.1309 29.9526C33.1309 31.8324 34.707 33.3562 36.6512 33.3562Z" fill="white"/>
<path d="M62.0088 59.2583C63.9764 59.2583 65.5714 57.7162 65.5714 55.8138C65.5714 53.9115 63.9764 52.3693 62.0088 52.3693C60.0413 52.3693 58.4463 53.9115 58.4463 55.8138C58.4463 57.7162 60.0413 59.2583 62.0088 59.2583Z" fill="white"/>
<path d="M70.6772 64.2696C70.666 62.1118 68.8412 60.3563 66.6093 60.3563C65.6525 60.3563 58.3399 60.3563 57.3811 60.3563C55.2782 60.3563 53.5374 61.9149 53.3337 63.8998C53.1464 61.8775 51.3774 60.3186 49.2832 60.3186C48.3263 60.3186 41.0137 60.3186 40.0549 60.3186C37.8231 60.3186 35.9982 62.0741 35.987 64.2319L35.9668 68.124H39.4048L39.4249 64.2486C39.4259 64.0716 39.5747 63.9287 39.7577 63.9292C39.9407 63.9296 40.0887 64.0733 40.0887 64.2501V68.1239H49.1937V64.2408C49.1937 64.0486 49.3548 63.8929 49.5535 63.8929C49.7522 63.8929 49.9132 64.0486 49.9132 64.2408C49.9132 64.2433 49.9132 64.2459 49.9131 64.2486L49.9333 68.1239C52.4468 68.1239 54.3235 68.1239 56.7312 68.1239L56.7511 64.2862C56.752 64.1092 56.9009 63.9664 57.0839 63.9669C57.2669 63.9673 57.4149 64.1109 57.4149 64.2878V68.1238H66.5199V64.3195C66.5199 64.1336 66.6709 63.9803 66.863 63.9713C67.0551 63.9623 67.221 64.1007 67.2393 64.2858C67.2393 64.2859 67.2393 64.286 67.2393 64.2861L67.2593 68.1237H70.6973L70.6772 64.2696Z" fill="white"/>
<path d="M44.6827 52.3316C42.7721 52.3316 41.22 53.783 41.1247 55.5989C41.067 56.7008 41.5513 57.7864 42.5024 58.4993C43.1051 58.9511 43.8612 59.2207 44.6827 59.2207C46.7064 59.2207 48.3448 57.5848 48.2406 55.5989C48.1453 53.7804 46.5904 52.3316 44.6827 52.3316Z" fill="white"/>
</svg>
