<svg width="83" height="83" viewBox="0 0 83 83" fill="none" xmlns="http://www.w3.org/2000/svg">
<rect x="0.5" y="0.5" width="82" height="82" rx="9.5" fill="white" stroke="#E2E4E8"/>
<path opacity="0.5" fill-rule="evenodd" clip-rule="evenodd" d="M58.0707 45.9451C56.1807 43.8899 52.9133 44.1748 51.3911 46.5062C49.8658 44.1709 46.5945 43.8923 44.7069 45.9498C43.1112 47.6895 43.2935 50.4239 44.9487 52.1066L50.8316 58.0857C51.1384 58.3972 51.6408 58.3972 51.9476 58.0857L57.832 52.1066C59.4904 50.4224 59.6704 47.684 58.0707 45.9451Z" fill="#3070A0"/>
<path fill-rule="evenodd" clip-rule="evenodd" d="M38.0872 45.3479H30.2611C29.8283 45.3479 29.4785 44.9973 29.4785 44.5653C29.4785 44.1333 29.8283 43.7827 30.2611 43.7827H38.0872C38.52 43.7827 38.8698 44.1333 38.8698 44.5653C38.8698 44.9973 38.52 45.3479 38.0872 45.3479Z" fill="#3070A0"/>
<path fill-rule="evenodd" clip-rule="evenodd" d="M27.1304 25H56.8696C58.596 25 60 26.404 60 28.1304V42.2174H58.4348V38.3043H25.5652V48.4783C25.5652 49.3415 26.2672 50.0435 27.1304 50.0435H39.6522V51.6087H27.1304C25.404 51.6087 24 50.2047 24 48.4783V28.1304C24 26.404 25.404 25 27.1304 25ZM25.5652 32.0435H58.4348V28.1304C58.4348 27.2672 57.7328 26.5652 56.8696 26.5652H27.1304C26.2672 26.5652 25.5652 27.2672 25.5652 28.1304V32.0435Z" fill="#3070A0"/>
</svg>
