<svg width="83" height="83" viewBox="0 0 83 83" fill="none" xmlns="http://www.w3.org/2000/svg">
<rect x="0.5" y="0.5" width="82" height="82" rx="9.5" fill="white" stroke="#E2E4E8"/>
<path opacity="0.2" fill-rule="evenodd" clip-rule="evenodd" d="M31.0439 42C31.0439 48.0417 35.9587 52.9565 42.0005 52.9565C48.0422 52.9565 52.957 48.0417 52.957 42C52.957 35.9582 48.0422 31.0435 42.0005 31.0435C35.9587 31.0435 31.0439 35.9582 31.0439 42ZM32.6092 42C32.6092 36.8215 36.8219 32.6087 42.0005 32.6087C47.179 32.6087 51.3918 36.8215 51.3918 42C51.3918 47.1785 47.179 51.3913 42.0005 51.3913C36.8219 51.3913 32.6092 47.1785 32.6092 42Z" fill="#3070A0"/>
<path opacity="0.5" fill-rule="evenodd" clip-rule="evenodd" d="M41.9996 45.1305C43.7285 45.1305 45.13 43.729 45.13 42.0001C45.13 40.2712 43.7285 38.8696 41.9996 38.8696C40.2707 38.8696 38.8691 40.2712 38.8691 42.0001C38.8691 43.729 40.2707 45.1305 41.9996 45.1305Z" fill="#3070A0"/>
<path fill-rule="evenodd" clip-rule="evenodd" d="M58.3346 34.433C57.919 34.753 57.4659 35.027 56.9776 35.2359C57.9253 37.3341 58.4348 39.631 58.4348 42C58.4348 51.0626 51.0626 58.4348 42 58.4348C32.9374 58.4348 25.5652 51.0626 25.5652 42C25.5652 32.9374 32.9374 25.5652 42 25.5652C45.1477 25.5652 48.221 26.4879 50.8505 28.1682C50.7034 28.5798 50.6087 29.0165 50.6087 29.4783C50.6087 31.6359 52.3641 33.3913 54.5217 33.3913C56.6794 33.3913 58.4348 31.6359 58.4348 29.4783C58.4348 27.3206 56.6794 25.5652 54.5217 25.5652C53.3885 25.5652 52.3743 26.0575 51.659 26.8299C48.7868 25.0025 45.4333 24 42 24C32.075 24 24 32.075 24 42C24 51.925 32.075 60 42 60C51.925 60 60 51.925 60 42C60 39.3462 59.4185 36.7722 58.3346 34.433Z" fill="#3070A0"/>
</svg>
