<svg width="534" height="437" viewBox="0 0 534 437" fill="none" xmlns="http://www.w3.org/2000/svg">
<path d="M533.485 114.426C533.485 177.622 482.254 228.852 419.059 228.852C355.863 228.852 304.633 177.622 304.633 114.426C304.633 51.2305 355.863 -0.000132844 419.059 -0.000132844C482.254 -0.000132844 533.485 51.2305 533.485 114.426Z" fill="#EBF4FC"/>
<path d="M191.109 355.649C191.109 392.585 161.166 422.529 124.23 422.529C87.2929 422.529 57.3496 392.585 57.3496 355.649C57.3496 318.713 87.2929 288.769 124.23 288.769C161.166 288.769 191.109 318.713 191.109 355.649Z" fill="#EBF4FC"/>
<path d="M123.337 138.38C101.748 138.38 84.2454 120.879 84.2454 99.2892C84.2454 77.6999 101.748 60.1986 123.337 60.1986C144.927 60.1986 162.428 77.6999 162.428 99.2892C162.428 120.879 144.927 138.38 123.337 138.38ZM123.337 38.1466C89.5695 38.1466 62.1953 65.5212 62.1953 99.2892C62.1953 133.057 89.5695 160.432 123.337 160.432C157.104 160.432 184.479 133.057 184.479 99.2892C184.479 65.5212 157.104 38.1466 123.337 38.1466Z" fill="#AFCFEC"/>
<path d="M354.334 429.054C354.334 432.93 351.193 436.071 347.318 436.071H169.905C166.03 436.071 162.889 432.93 162.889 429.054C162.889 425.18 166.03 422.039 169.905 422.039H232.885L241.571 406.001H256.607H260.617H275.651L284.338 422.039H347.318C351.193 422.039 354.334 425.18 354.334 429.054Z" fill="#1C3054"/>
<path d="M271.681 399.988H242.613V391.468H271.681V399.988Z" fill="#EF3068"/>
<path d="M271.681 385.955H242.613V377.435H271.681V385.955Z" fill="#EF3068"/>
<path d="M488.582 348.603C483.526 350.544 478.035 351.607 472.296 351.607C447.192 351.607 426.842 331.256 426.842 306.152C426.842 281.047 447.192 260.696 472.296 260.696C497.402 260.696 517.751 281.047 517.751 306.152C517.751 312.879 516.291 319.264 513.668 325.008" stroke="#EF3068" stroke-width="1.50349" stroke-miterlimit="10" stroke-linecap="round" stroke-linejoin="round"/>
<path d="M294.444 135.231C278.563 135.231 265.688 122.355 265.688 106.473C265.688 90.5919 278.563 77.7159 294.444 77.7159C310.327 77.7159 323.202 90.5919 323.202 106.473C323.202 122.355 310.327 135.231 294.444 135.231ZM360.238 92.7479H352.979C351.472 86.2999 348.938 80.2505 345.54 74.7865L350.671 69.6559C352.883 67.4439 352.883 63.8572 350.671 61.6466L339.272 50.2466C337.06 48.0346 333.474 48.0346 331.262 50.2466L326.131 55.3772C320.667 51.9812 314.618 49.4439 308.17 47.9385V40.6812C308.17 37.5532 305.632 35.0172 302.506 35.0172H286.384C283.255 35.0172 280.72 37.5532 280.72 40.6812V47.9385C274.271 49.4439 268.223 51.9812 262.758 55.3772L257.627 50.2466C255.415 48.0346 251.83 48.0346 249.618 50.2466L238.218 61.6466C236.006 63.8572 236.006 67.4439 238.218 69.6559L243.348 74.7865C239.952 80.2505 237.415 86.2999 235.91 92.7479H228.652C225.524 92.7479 222.988 95.2839 222.988 98.4119V114.535C222.988 117.661 225.524 120.199 228.652 120.199H235.91C237.415 126.647 239.952 132.696 243.348 138.16L238.218 143.291C236.006 145.503 236.006 149.089 238.218 151.3L249.618 162.7C251.83 164.912 255.415 164.912 257.627 162.7L262.758 157.571C268.222 160.965 274.271 163.503 280.72 165.008V172.265C280.72 175.393 283.255 177.929 286.384 177.929H302.506C305.632 177.929 308.17 175.393 308.17 172.265V165.008C314.618 163.503 320.667 160.965 326.131 157.571L331.262 162.7C333.474 164.912 337.06 164.912 339.272 162.7L350.671 151.3C352.883 149.089 352.883 145.503 350.671 143.291L345.542 138.16C348.938 132.696 351.472 126.647 352.979 120.199H360.238C363.364 120.199 365.902 117.661 365.902 114.535V98.4119C365.902 95.2839 363.364 92.7479 360.238 92.7479Z" fill="#5897D7"/>
<path d="M58.9125 373.604C50.4677 373.604 43.623 366.76 43.623 358.315V119.031C43.623 110.587 50.4682 103.74 58.913 103.74H458.31C466.755 103.74 473.601 110.585 473.601 119.031V358.315C473.601 366.76 466.755 373.604 458.31 373.604H58.9125Z" fill="#263973"/>
<path d="M119.327 146.9H74.9746V137.127H119.327V146.9Z" fill="#2F498D"/>
<path d="M172.702 146.9H128.35V137.127H172.702V146.9Z" fill="#2F498D"/>
<path d="M308.015 146.9H263.662V137.127H308.015V146.9Z" fill="#2F498D"/>
<path d="M443.331 146.9H398.977V137.127H443.331V146.9Z" fill="#2F498D"/>
<path d="M258.024 146.9H178.715V137.127H258.024V146.9Z" fill="#EF3068"/>
<path d="M392.587 146.9H313.279V137.127H392.587V146.9Z" fill="#4A83CC"/>
<path d="M82.9926 134.12H75.2246V129.359H82.9926V134.12Z" fill="#4A83CC"/>
<path d="M156.287 159.68H75.2246V154.919H156.287V159.68Z" fill="white"/>
<path d="M99.2806 168.075H75.2246V163.313H99.2806V168.075Z" fill="white"/>
<path d="M161.049 339.347H85.8746C80.2692 339.347 75.7266 334.803 75.7266 329.199V193.132C75.7266 187.527 80.2692 182.984 85.8746 182.984H161.049C166.655 182.984 171.197 187.527 171.197 193.132V329.199C171.197 334.803 166.655 339.347 161.049 339.347Z" fill="#2F498D"/>
<path d="M119.703 210.797H87.7539V205.912H119.703V210.797Z" fill="white"/>
<path d="M119.703 221.698H87.7539V216.812H119.703V221.698Z" fill="white"/>
<path d="M119.703 232.6H87.7539V227.713H119.703V232.6Z" fill="white"/>
<path d="M107.298 278.08H87.7539V273.193H107.298V278.08Z" fill="white"/>
<path d="M107.298 288.98H87.7539V284.093H107.298V288.98Z" fill="white"/>
<path d="M140.877 288.98H121.332V284.093H140.877V288.98Z" fill="white"/>
<path d="M100.033 265.676H87.7539V260.789H100.033V265.676Z" fill="white"/>
<path d="M146.891 265.676H140.375V260.789H146.891V265.676Z" fill="white"/>
<path d="M137.87 265.676H104.293V260.789H137.87V265.676Z" fill="#EF3068"/>
<path d="M92.4512 247.259H87.7539V242.372H92.4512V247.259Z" fill="#4A83CC"/>
<path d="M92.4512 255.903H87.7539V251.016H92.4512V255.903Z" fill="#EF3068"/>
<path d="M113.815 289.983H112.061L116.258 283.717H118.013L113.815 289.983Z" fill="white"/>
<path d="M160.297 302.51H87.7539V298.377H160.297V302.51Z" fill="#262D59"/>
<path d="M160.297 311.908H87.7539V307.773H160.297V311.908Z" fill="#262D59"/>
<path d="M509.233 247.633H309.769C304.788 247.633 300.748 243.596 300.748 238.612V184.487C300.748 179.505 304.788 175.465 309.769 175.465H509.233C514.215 175.465 518.253 179.505 518.253 184.487V238.612C518.253 243.596 514.215 247.633 509.233 247.633Z" fill="#5897D7"/>
<path d="M365.4 222.075C365.4 222.075 376.424 195.012 407.999 201.527C439.571 208.041 455.61 243.624 496.203 214.557" stroke="white" stroke-width="1.50349" stroke-miterlimit="10"/>
<path d="M467.636 228.089H463.127V223.577H467.636V228.089Z" fill="#5897D7"/>
<path d="M467.636 228.089H463.127V223.577H467.636V228.089Z" stroke="white" stroke-width="1.50349" stroke-miterlimit="10"/>
<path d="M370.91 200.273H428.043" stroke="white" stroke-width="0.751747" stroke-miterlimit="10"/>
<path d="M436.814 227.087H493.948" stroke="white" stroke-width="0.751747" stroke-miterlimit="10"/>
<path d="M399.477 202.529H394.967V198.018H399.477V202.529Z" fill="#5897D7"/>
<path d="M399.477 202.529H394.967V198.018H399.477V202.529Z" stroke="white" stroke-width="1.50349" stroke-miterlimit="10"/>
<path d="M338.837 266.176H295.737C292.139 266.176 289.223 263.26 289.223 259.661V195.012C289.223 191.413 292.139 188.496 295.737 188.496H338.837C342.436 188.496 345.352 191.413 345.352 195.012V259.661C345.352 263.26 342.436 266.176 338.837 266.176Z" fill="#2F498D"/>
<path d="M329.942 203.927H297.992V199.521H329.942V203.927Z" fill="white"/>
<path d="M329.942 213.753H297.992V209.348H329.942V213.753Z" fill="white"/>
<path d="M310.02 223.58H297.992V219.174H310.02V223.58Z" fill="white"/>
<path d="M318.791 233.744H297.992V229.34H318.791V233.744Z" fill="#5897D7"/>
<path d="M312.024 243.571H297.992V239.165H312.024V243.571Z" fill="#5897D7"/>
<path d="M312.024 253.397H297.992V248.992H312.024V253.397Z" fill="white"/>
<path d="M483.174 165.693H505.726" stroke="#2F498D" stroke-width="3.00699" stroke-miterlimit="10" stroke-linecap="round" stroke-linejoin="round"/>
<path d="M432.5 292.945L424.716 299.037L413.548 301.067C413.548 301.067 403.057 300.391 402.043 300.391C401.027 300.391 393.92 294.637 393.92 294.637L380.723 289.9L371.584 293.284L360.755 290.915L344.512 289.9L328.944 295.991L316.084 298.021L304.579 301.744L291.719 302.76L277.844 291.931L264.984 289.561L251.785 297.007L241.295 300.391L229.384 300.052L214.373 309.189H205.423L190.307 314.491" stroke="#F03F61" stroke-width="1.35367" stroke-miterlimit="10"/>
<path d="M190.531 314.716H432.838" stroke="#FAFAFA" stroke-width="0.338416" stroke-miterlimit="10"/>
<path d="M190.645 317.763H188.164V311.671H190.645V317.763Z" fill="#FAFAFA"/>
<path d="M433.852 317.763H431.371V311.671H433.852V317.763Z" fill="#FAFAFA"/>
<path d="M432.613 314.716V294.299" stroke="#FAFAFA" stroke-width="0.338416" stroke-miterlimit="10"/>
<path d="M433.966 293.284C433.966 294.343 433.108 295.201 432.048 295.201C430.99 295.201 430.131 294.343 430.131 293.284C430.131 292.224 430.99 291.367 432.048 291.367C433.108 291.367 433.966 292.224 433.966 293.284Z" fill="#FAFAFA"/>
<path d="M191.823 328.177V320.301H192.73V323.209H192.807C192.874 323.106 192.966 322.975 193.084 322.816C193.205 322.655 193.376 322.511 193.6 322.386C193.825 322.258 194.13 322.193 194.515 322.193C195.012 322.193 195.451 322.318 195.83 322.566C196.209 322.815 196.506 323.168 196.718 323.624C196.931 324.08 197.038 324.619 197.038 325.239C197.038 325.865 196.931 326.407 196.718 326.866C196.506 327.322 196.211 327.676 195.834 327.927C195.457 328.176 195.022 328.3 194.53 328.3C194.151 328.3 193.847 328.237 193.619 328.112C193.391 327.984 193.215 327.839 193.092 327.677C192.969 327.513 192.874 327.377 192.807 327.27H192.7V328.177H191.823ZM192.715 325.224C192.715 325.67 192.78 326.063 192.911 326.404C193.042 326.743 193.233 327.008 193.484 327.2C193.735 327.39 194.043 327.485 194.407 327.485C194.787 327.485 195.103 327.385 195.357 327.185C195.613 326.983 195.806 326.711 195.934 326.37C196.065 326.026 196.13 325.644 196.13 325.224C196.13 324.808 196.066 324.434 195.938 324.101C195.812 323.765 195.621 323.5 195.365 323.305C195.111 323.107 194.792 323.009 194.407 323.009C194.038 323.009 193.728 323.102 193.476 323.289C193.225 323.474 193.036 323.733 192.907 324.066C192.779 324.397 192.715 324.783 192.715 325.224ZM200.902 328.3C200.333 328.3 199.842 328.175 199.43 327.923C199.019 327.67 198.703 327.316 198.48 326.862C198.259 326.406 198.149 325.875 198.149 325.27C198.149 324.665 198.259 324.132 198.48 323.67C198.703 323.206 199.013 322.845 199.41 322.586C199.81 322.324 200.277 322.193 200.81 322.193C201.118 322.193 201.422 322.245 201.722 322.347C202.021 322.45 202.295 322.616 202.541 322.847C202.787 323.075 202.983 323.378 203.129 323.755C203.275 324.132 203.348 324.596 203.348 325.147V325.531H198.795V324.747H202.425C202.425 324.414 202.359 324.116 202.225 323.855C202.095 323.593 201.907 323.387 201.664 323.236C201.423 323.084 201.138 323.009 200.81 323.009C200.449 323.009 200.136 323.098 199.872 323.278C199.61 323.455 199.409 323.686 199.268 323.97C199.127 324.255 199.056 324.56 199.056 324.885V325.408C199.056 325.854 199.133 326.233 199.287 326.543C199.444 326.851 199.66 327.085 199.937 327.247C200.214 327.406 200.536 327.485 200.902 327.485C201.141 327.485 201.356 327.452 201.548 327.385C201.743 327.316 201.911 327.213 202.052 327.077C202.193 326.939 202.302 326.767 202.379 326.562L203.256 326.808C203.164 327.106 203.009 327.367 202.791 327.593C202.573 327.816 202.303 327.99 201.983 328.116C201.663 328.239 201.302 328.3 200.902 328.3ZM207.298 322.27V323.039H204.237V322.27H207.298ZM205.129 320.855H206.036V326.485C206.036 326.742 206.073 326.934 206.148 327.062C206.225 327.188 206.322 327.272 206.44 327.316C206.561 327.357 206.687 327.377 206.821 327.377C206.921 327.377 207.003 327.372 207.067 327.362C207.131 327.349 207.182 327.339 207.221 327.331L207.405 328.146C207.344 328.17 207.258 328.193 207.148 328.216C207.037 328.241 206.898 328.254 206.729 328.254C206.472 328.254 206.221 328.199 205.975 328.089C205.731 327.979 205.529 327.811 205.367 327.585C205.208 327.359 205.129 327.075 205.129 326.731V320.855ZM210.401 328.316C210.027 328.316 209.687 328.245 209.382 328.104C209.077 327.961 208.835 327.754 208.655 327.485C208.476 327.213 208.386 326.885 208.386 326.501C208.386 326.162 208.453 325.888 208.586 325.678C208.719 325.465 208.897 325.298 209.121 325.178C209.344 325.057 209.59 324.967 209.859 324.908C210.131 324.847 210.404 324.798 210.678 324.762C211.037 324.716 211.328 324.682 211.551 324.658C211.777 324.633 211.941 324.591 212.043 324.532C212.148 324.473 212.201 324.37 212.201 324.224V324.193C212.201 323.814 212.097 323.519 211.889 323.309C211.684 323.098 211.373 322.993 210.955 322.993C210.522 322.993 210.182 323.088 209.936 323.278C209.69 323.468 209.517 323.67 209.417 323.886L208.555 323.578C208.709 323.219 208.914 322.939 209.17 322.74C209.429 322.537 209.711 322.396 210.017 322.317C210.324 322.234 210.627 322.193 210.924 322.193C211.114 322.193 211.332 322.217 211.578 322.263C211.827 322.306 212.066 322.397 212.297 322.536C212.53 322.674 212.724 322.883 212.878 323.163C213.032 323.442 213.108 323.816 213.108 324.285V328.177H212.201V327.377H212.155C212.093 327.506 211.991 327.643 211.847 327.789C211.703 327.935 211.512 328.059 211.274 328.162C211.036 328.264 210.745 328.316 210.401 328.316ZM210.54 327.5C210.898 327.5 211.201 327.43 211.447 327.289C211.696 327.148 211.883 326.966 212.009 326.743C212.137 326.52 212.201 326.285 212.201 326.039V325.208C212.162 325.255 212.078 325.297 211.947 325.335C211.819 325.371 211.67 325.403 211.501 325.431C211.334 325.457 211.172 325.48 211.013 325.501C210.856 325.519 210.729 325.534 210.632 325.547C210.396 325.578 210.175 325.628 209.97 325.697C209.768 325.763 209.604 325.865 209.478 326.001C209.355 326.134 209.294 326.316 209.294 326.547C209.294 326.862 209.41 327.1 209.644 327.262C209.879 327.421 210.178 327.5 210.54 327.5ZM220.38 322.27V323.039H217.318V322.27H220.38ZM218.211 320.855H219.118V326.485C219.118 326.742 219.155 326.934 219.23 327.062C219.307 327.188 219.404 327.272 219.522 327.316C219.642 327.357 219.769 327.377 219.903 327.377C220.003 327.377 220.085 327.372 220.149 327.362C220.213 327.349 220.264 327.339 220.303 327.331L220.487 328.146C220.426 328.17 220.34 328.193 220.23 328.216C220.119 328.241 219.98 328.254 219.81 328.254C219.554 328.254 219.303 328.199 219.057 328.089C218.813 327.979 218.611 327.811 218.449 327.585C218.29 327.359 218.211 327.075 218.211 326.731V320.855ZM224.158 328.3C223.589 328.3 223.098 328.175 222.685 327.923C222.275 327.67 221.958 327.316 221.735 326.862C221.515 326.406 221.404 325.875 221.404 325.27C221.404 324.665 221.515 324.132 221.735 323.67C221.958 323.206 222.268 322.845 222.666 322.586C223.066 322.324 223.532 322.193 224.066 322.193C224.373 322.193 224.677 322.245 224.977 322.347C225.277 322.45 225.55 322.616 225.796 322.847C226.042 323.075 226.238 323.378 226.384 323.755C226.531 324.132 226.604 324.596 226.604 325.147V325.531H222.05V324.747H225.681C225.681 324.414 225.614 324.116 225.481 323.855C225.35 323.593 225.163 323.387 224.919 323.236C224.678 323.084 224.394 323.009 224.066 323.009C223.704 323.009 223.391 323.098 223.127 323.278C222.866 323.455 222.664 323.686 222.523 323.97C222.382 324.255 222.312 324.56 222.312 324.885V325.408C222.312 325.854 222.389 326.233 222.543 326.543C222.699 326.851 222.916 327.085 223.193 327.247C223.47 327.406 223.791 327.485 224.158 327.485C224.396 327.485 224.612 327.452 224.804 327.385C224.999 327.316 225.167 327.213 225.308 327.077C225.449 326.939 225.558 326.767 225.635 326.562L226.511 326.808C226.419 327.106 226.264 327.367 226.046 327.593C225.828 327.816 225.559 327.99 225.238 328.116C224.918 328.239 224.558 328.3 224.158 328.3ZM232.168 323.593L231.353 323.824C231.302 323.688 231.226 323.556 231.126 323.428C231.029 323.297 230.895 323.189 230.726 323.105C230.557 323.02 230.34 322.978 230.076 322.978C229.715 322.978 229.414 323.061 229.173 323.228C228.934 323.392 228.815 323.601 228.815 323.855C228.815 324.08 228.897 324.259 229.061 324.389C229.225 324.52 229.482 324.629 229.83 324.716L230.707 324.932C231.235 325.06 231.629 325.256 231.888 325.52C232.147 325.781 232.276 326.119 232.276 326.531C232.276 326.87 232.179 327.172 231.984 327.439C231.791 327.706 231.522 327.916 231.176 328.07C230.83 328.223 230.428 328.3 229.969 328.3C229.366 328.3 228.867 328.17 228.473 327.908C228.078 327.647 227.828 327.265 227.723 326.762L228.584 326.547C228.666 326.865 228.821 327.103 229.05 327.262C229.28 327.421 229.581 327.5 229.953 327.5C230.376 327.5 230.712 327.411 230.961 327.231C231.212 327.049 231.338 326.831 231.338 326.577C231.338 326.372 231.266 326.201 231.122 326.062C230.979 325.921 230.758 325.816 230.461 325.747L229.476 325.516C228.935 325.388 228.538 325.189 228.284 324.92C228.033 324.648 227.907 324.309 227.907 323.901C227.907 323.568 228.001 323.273 228.188 323.016C228.378 322.76 228.635 322.559 228.961 322.413C229.289 322.267 229.661 322.193 230.076 322.193C230.661 322.193 231.12 322.322 231.453 322.578C231.789 322.834 232.027 323.173 232.168 323.593ZM236.211 322.27V323.039H233.15V322.27H236.211ZM234.042 320.855H234.95V326.485C234.95 326.742 234.987 326.934 235.061 327.062C235.138 327.188 235.236 327.272 235.353 327.316C235.474 327.357 235.601 327.377 235.734 327.377C235.834 327.377 235.916 327.372 235.98 327.362C236.044 327.349 236.096 327.339 236.134 327.331L236.319 328.146C236.257 328.17 236.171 328.193 236.061 328.216C235.951 328.241 235.811 328.254 235.642 328.254C235.386 328.254 235.134 328.199 234.888 328.089C234.645 327.979 234.442 327.811 234.281 327.585C234.122 327.359 234.042 327.075 234.042 326.731V320.855Z" fill="#FAFAFA"/>
<path d="M190.869 330.331H236.749V331.069H190.869V330.331Z" fill="#FAFAFA"/>
<path d="M397.191 326.223H246.484V323.516H397.191V326.223Z" fill="#28345C"/>
<path d="M338.984 326.223H246.484V323.516H338.984V326.223Z" fill="#EF3068"/>
<path d="M320.598 331.412H246.484V328.705H320.598V331.412Z" fill="#28345C"/>
<path d="M199.5 336.769H208.638L209.822 334.232H191.379V338.463H197.808L199.5 336.769Z" fill="#EF3068"/>
<path d="M218.437 335.219H217.422V334.204H218.437V335.219Z" fill="#FAFAFA"/>
<path d="M224.739 335.219H223.725V334.204H224.739V335.219Z" fill="#FAFAFA"/>
<path d="M231.043 335.219H230.027V334.204H231.043V335.219Z" fill="#FAFAFA"/>
<path d="M424.04 285.796C423.589 285.796 423.183 285.706 422.821 285.526C422.46 285.347 422.17 285.101 421.952 284.788C421.734 284.475 421.615 284.119 421.594 283.719H422.517C422.553 284.075 422.715 284.37 423.002 284.604C423.292 284.834 423.638 284.95 424.04 284.95C424.363 284.95 424.65 284.874 424.902 284.723C425.155 284.571 425.354 284.364 425.498 284.1C425.644 283.833 425.717 283.532 425.717 283.196C425.717 282.852 425.641 282.546 425.49 282.277C425.341 282.005 425.136 281.791 424.875 281.635C424.613 281.478 424.314 281.399 423.979 281.396C423.738 281.394 423.49 281.431 423.236 281.508C422.983 281.582 422.774 281.678 422.61 281.796L421.717 281.689L422.194 277.812H426.286V278.658H422.994L422.717 280.981H422.763C422.925 280.853 423.127 280.746 423.371 280.662C423.615 280.577 423.868 280.535 424.132 280.535C424.614 280.535 425.044 280.65 425.421 280.881C425.8 281.109 426.098 281.422 426.313 281.819C426.531 282.217 426.64 282.67 426.64 283.181C426.64 283.683 426.527 284.132 426.301 284.527C426.078 284.919 425.771 285.229 425.378 285.457C424.986 285.683 424.54 285.796 424.04 285.796ZM430.736 285.796C430.157 285.796 429.663 285.638 429.256 285.323C428.848 285.005 428.537 284.545 428.321 283.942C428.106 283.337 427.998 282.606 427.998 281.75C427.998 280.899 428.106 280.172 428.321 279.57C428.539 278.965 428.852 278.503 429.26 278.185C429.67 277.865 430.162 277.704 430.736 277.704C431.311 277.704 431.802 277.865 432.209 278.185C432.619 278.503 432.932 278.965 433.148 279.57C433.365 280.172 433.474 280.899 433.474 281.75C433.474 282.606 433.367 283.337 433.151 283.942C432.936 284.545 432.625 285.005 432.217 285.323C431.809 285.638 431.316 285.796 430.736 285.796ZM430.736 284.95C431.311 284.95 431.757 284.673 432.075 284.119C432.393 283.565 432.551 282.776 432.551 281.75C432.551 281.068 432.478 280.487 432.332 280.008C432.189 279.529 431.981 279.163 431.709 278.912C431.44 278.661 431.116 278.535 430.736 278.535C430.167 278.535 429.722 278.816 429.402 279.377C429.081 279.936 428.921 280.727 428.921 281.75C428.921 282.432 428.993 283.011 429.137 283.488C429.28 283.965 429.487 284.328 429.756 284.577C430.027 284.825 430.354 284.95 430.736 284.95ZM437.505 285.796C436.925 285.796 436.432 285.638 436.024 285.323C435.616 285.005 435.305 284.545 435.09 283.942C434.874 283.337 434.767 282.606 434.767 281.75C434.767 280.899 434.874 280.172 435.09 279.57C435.308 278.965 435.62 278.503 436.028 278.185C436.438 277.865 436.93 277.704 437.505 277.704C438.079 277.704 438.57 277.865 438.978 278.185C439.388 278.503 439.701 278.965 439.916 279.57C440.134 280.172 440.243 280.899 440.243 281.75C440.243 282.606 440.135 283.337 439.92 283.942C439.704 284.545 439.393 285.005 438.985 285.323C438.578 285.638 438.084 285.796 437.505 285.796ZM437.505 284.95C438.079 284.95 438.525 284.673 438.843 284.119C439.161 283.565 439.32 282.776 439.32 281.75C439.32 281.068 439.247 280.487 439.101 280.008C438.957 279.529 438.749 279.163 438.478 278.912C438.208 278.661 437.884 278.535 437.505 278.535C436.936 278.535 436.491 278.816 436.17 279.377C435.85 279.936 435.69 280.727 435.69 281.75C435.69 282.432 435.761 283.011 435.905 283.488C436.048 283.965 436.255 284.328 436.524 284.577C436.796 284.825 437.123 284.95 437.505 284.95Z" fill="#FAFAFA"/>
<path d="M420.764 287.842H440.889V288.58H420.764V287.842Z" fill="#FAFAFA"/>
<path d="M408.02 331.637H405.764L402.154 323.516H404.41L408.02 331.637Z" fill="#28345C"/>
<path d="M413.886 331.637H411.629L408.02 323.516H410.277L413.886 331.637Z" fill="#28345C"/>
<path d="M419.752 331.637H417.496L413.887 323.516H416.143L419.752 331.637Z" fill="#28345C"/>
<path d="M425.619 331.637H423.361L419.752 323.516H422.009L425.619 331.637Z" fill="#28345C"/>
<path d="M431.371 331.637H429.117L425.506 323.516H427.762L431.371 331.637Z" fill="#28345C"/>
<path d="M384.895 58.5745V52.0038H421.577V58.5745H384.895Z" fill="#AFCFEC"/>
<path d="M384.895 70.3306V63.7612H440.207V70.3306H384.895Z" fill="#AFCFEC"/>
<path d="M384.895 82.0892V75.5186H453.103V82.0892H384.895Z" fill="#AFCFEC"/>
<path d="M384.895 93.8466V87.2759H410.973V93.8466H384.895Z" fill="#AFCFEC"/>
<path d="M0 137.759V131.188H36.6837V137.759H0Z" fill="#4A83CC"/>
<path d="M0 149.515V142.945H55.3124V149.515H0Z" fill="#AFCFEC"/>
<path d="M0 161.272V154.703H68.2093V161.272H0Z" fill="#AFCFEC"/>
<path d="M0 173.029V166.46H26.0796V173.029H0Z" fill="#AFCFEC"/>
<path d="M247.876 382.196H91.5137V361.899H247.876V382.196Z" stroke="#5897D7" stroke-width="1.50349" stroke-miterlimit="10"/>
<path d="M174.456 248.135H166.938V202.028H174.456V248.135Z" stroke="#5897D7" stroke-width="1.50349" stroke-miterlimit="10"/>
<path d="M498.209 306.152C498.209 320.461 486.609 332.061 472.298 332.061C457.989 332.061 446.389 320.461 446.389 306.152C446.389 291.841 457.989 280.241 472.298 280.241C486.609 280.241 498.209 291.841 498.209 306.152Z" fill="#EF3068"/>
<path d="M470.42 303.72L460.128 307.491L470.42 311.231V315.095L455.709 309.5V305.483L470.42 299.889V303.72Z" fill="#FBFDFE"/>
<path d="M473.781 299.889L488.492 305.483V309.5L473.781 315.095V311.231L484.071 307.491L473.781 303.72V299.889Z" fill="#FBFDFE"/>
<path d="M515.498 327.319C515.498 329.187 513.983 330.703 512.115 330.703C510.246 330.703 508.732 329.187 508.732 327.319C508.732 325.451 510.246 323.936 512.115 323.936C513.983 323.936 515.498 325.451 515.498 327.319Z" stroke="#EF3068" stroke-width="1.50349" stroke-miterlimit="10"/>
<path d="M205.779 95.0292H83.2441V82.2492H205.779V95.0292Z" stroke="#5897D7" stroke-width="1.50349" stroke-miterlimit="10"/>
<path d="M164.433 90.1426H88.5059V86.3839H164.433V90.1426Z" fill="#5897D7"/>
<path d="M277.192 186.492H187.484V181.981H277.192V186.492Z" fill="#2F498D"/>
<path d="M228.142 186.492H187.484V181.981H228.142V186.492Z" fill="#4A83CC"/>
<path d="M277.192 198.144H187.484V193.633H277.192V198.144Z" fill="#2F498D"/>
<path d="M249.942 198.144H187.484V193.633H249.942V198.144Z" fill="#EF3068"/>
<path d="M277.192 209.796H187.484V205.285H277.192V209.796Z" fill="#2F498D"/>
<path d="M205.778 209.796H187.484V205.285H205.778V209.796Z" fill="#74D2EA"/>
<path d="M189.616 175.843H187.861V174.088H189.616V175.843Z" fill="#2F498D"/>
<path d="M195.628 175.843H193.875V174.088H195.628V175.843Z" fill="#2F498D"/>
<path d="M201.643 175.843H199.889V174.088H201.643V175.843Z" fill="#2F498D"/>
<path d="M357.716 238.445H354.793V235.523H357.716V238.445Z" fill="white"/>
<path d="M367.737 238.445H364.814V235.523H367.737V238.445Z" fill="white"/>
<path d="M377.762 238.445H374.838V235.523H377.762V238.445Z" fill="white"/>
<path d="M402.47 124.833H396.988V119.352H402.47V124.833Z" fill="white"/>
<path d="M421.263 124.833H415.781V119.352H421.263V124.833Z" fill="white"/>
<path d="M440.057 124.833H434.574V119.352H440.057V124.833Z" fill="white"/>
<path d="M324.789 351.359H319.307V345.879H324.789V351.359Z" fill="white"/>
<path d="M343.583 351.359H338.102V345.879H343.583V351.359Z" fill="white"/>
<path d="M362.376 351.359H356.895V345.879H362.376V351.359Z" fill="white"/>
<path d="M92.2658 197.016H89.3418V194.093H92.2658V197.016Z" fill="white"/>
<path d="M102.287 197.016H99.3633V194.093H102.287V197.016Z" fill="white"/>
<path d="M112.311 197.016H109.389V194.093H112.311V197.016Z" fill="white"/>
<path d="M499.21 195.263H450.598V190.501H499.21V195.263Z" fill="white"/>
<path d="M465.023 203.657H450.598V198.896H465.023V203.657Z" fill="#4577C4"/>
<path d="M58.4366 200.273H47.9126V189.749H38.1398V200.273H27.6152V210.047H38.1398V220.571H47.9126V210.047H58.4366V200.273Z" fill="#74D2EA"/>
<path d="M30.2742 229.592H23.8566V223.175H17.8977V229.592H11.4805V235.551H17.8977V241.968H23.8566V235.551H30.2742V229.592Z" fill="#4A83CC"/>
<path d="M205.921 249.024C201.184 249.024 197.344 245.184 197.344 240.447C197.344 235.711 201.184 231.871 205.921 231.871C210.657 231.871 214.497 235.711 214.497 240.447C214.497 245.184 210.657 249.024 205.921 249.024ZM205.921 223.989C196.83 223.989 189.461 231.357 189.461 240.447C189.461 249.537 196.83 256.905 205.921 256.905C215.01 256.905 222.38 249.537 222.38 240.447C222.38 231.357 215.01 223.989 205.921 223.989Z" fill="#2F498D"/>
<path d="M194.716 238.824C196.244 238.824 197.586 237.915 198.28 236.552C199.699 233.773 202.586 231.871 205.92 231.871C209.255 231.871 212.142 233.773 213.559 236.552C214.255 237.915 215.595 238.824 217.124 238.824C220.004 238.824 221.975 235.807 220.708 233.219C218.032 227.753 212.416 223.989 205.92 223.989C199.423 223.989 193.807 227.753 191.131 233.22C189.866 235.807 191.835 238.824 194.716 238.824Z" fill="#5897D7"/>
<path d="M258.599 240.447C258.599 245.184 254.758 249.024 250.021 249.024C245.285 249.024 241.445 245.184 241.445 240.447C241.445 235.711 245.285 231.871 250.021 231.871C254.758 231.871 258.599 235.711 258.599 240.447ZM233.562 240.447C233.562 249.537 240.932 256.905 250.021 256.905C259.112 256.905 266.48 249.537 266.48 240.447C266.48 231.357 259.112 223.989 250.021 223.989C240.932 223.989 233.562 231.357 233.562 240.447Z" fill="#2F498D"/>
<path d="M248.4 251.652C248.4 250.121 247.489 248.781 246.128 248.087C243.349 246.668 241.445 243.781 241.445 240.447C241.445 237.112 243.349 234.225 246.128 232.808C247.489 232.112 248.4 230.771 248.4 229.243C248.4 226.363 245.381 224.392 242.794 225.657C237.328 228.333 233.562 233.949 233.562 240.447C233.562 246.943 237.328 252.56 242.794 255.235C245.381 256.501 248.4 254.532 248.4 251.652Z" fill="#EF3068"/>
<path d="M158.92 247.633H128.85V175.465H158.92V247.633Z" stroke="#5897D7" stroke-width="1.50349" stroke-miterlimit="10"/>
<path d="M141.88 191.965H133.109V189.373H141.88V191.965Z" fill="#74D2EA"/>
<path d="M141.88 197.748H133.109V195.156H141.88V197.748Z" fill="#74D2EA"/>
<path d="M141.88 203.531H133.109V200.939H141.88V203.531Z" fill="#74D2EA"/>
<path d="M141.88 233.601H133.109V231.008H141.88V233.601Z" fill="#74D2EA"/>
<path d="M145.889 212.012H133.109V209.42H145.889V212.012Z" fill="#74D2EA"/>
<path d="M145.889 217.796H133.109V215.203H145.889V217.796Z" fill="white"/>
<path d="M145.889 223.577H133.109V220.985H145.889V223.577Z" fill="white"/>
<path d="M59.1881 303.765H21.0996V265.676H59.1881V303.765Z" fill="#5897D7"/>
<path d="M39.1407 312.785H1.05273V274.697H39.1407V312.785Z" stroke="#5897D7" stroke-width="1.50349" stroke-miterlimit="10"/>
<path d="M490.188 391.969H474.152V375.932H490.188V391.969Z" stroke="#5897D7" stroke-width="1.50349" stroke-miterlimit="10"/>
<path d="M281.703 350.623H295.235L302.752 358.14H380.934L392.962 346.112H435.06" stroke="white" stroke-width="1.50349" stroke-miterlimit="10"/>
<path d="M281.704 350.811C281.704 352.989 279.937 354.757 277.757 354.757C275.577 354.757 273.811 352.989 273.811 350.811C273.811 348.631 275.577 346.864 277.757 346.864C279.937 346.864 281.704 348.631 281.704 350.811Z" stroke="white" stroke-width="1.50349" stroke-miterlimit="10"/>
<path d="M443.079 345.925C443.079 348.104 441.312 349.872 439.132 349.872C436.954 349.872 435.186 348.104 435.186 345.925C435.186 343.745 436.954 341.979 439.132 341.979C441.312 341.979 443.079 343.745 443.079 345.925Z" stroke="white" stroke-width="1.50349" stroke-miterlimit="10"/>
<path d="M492.193 138.38C492.193 141.148 489.95 143.392 487.182 143.392C484.413 143.392 482.17 141.148 482.17 138.38C482.17 135.612 484.413 133.368 487.182 133.368C489.95 133.368 492.193 135.612 492.193 138.38Z" fill="#5897D7"/>
<path d="M29.1167 333.833C29.1167 336.603 26.873 338.845 24.1058 338.845C21.3376 338.845 19.0938 336.603 19.0938 333.833C19.0938 331.065 21.3376 328.823 24.1058 328.823C26.873 328.823 29.1167 331.065 29.1167 333.833Z" fill="#EF3068"/>
<path d="M52.1721 352.377C52.1721 357.22 48.2449 361.148 43.4011 361.148C38.5574 361.148 34.6309 357.22 34.6309 352.377C34.6309 347.533 38.5574 343.607 43.4011 343.607C48.2449 343.607 52.1721 347.533 52.1721 352.377Z" fill="#EF3068"/>
<path d="M350.865 389.964H315.783V381.945H350.865V389.964Z" stroke="#5897D7" stroke-width="1.50349" stroke-miterlimit="10"/>
<path d="M392.711 404.999H315.783V396.981H392.711V404.999Z" stroke="#5897D7" stroke-width="1.50349" stroke-miterlimit="10"/>
<path d="M100.872 389.625L92.3691 398.128" stroke="#5897D7" stroke-width="1.50349" stroke-miterlimit="10" stroke-linecap="round" stroke-linejoin="round"/>
<path d="M109.048 389.625L100.545 398.128" stroke="#5897D7" stroke-width="1.50349" stroke-miterlimit="10" stroke-linecap="round" stroke-linejoin="round"/>
<path d="M117.223 389.625L108.721 398.128" stroke="#5897D7" stroke-width="1.50349" stroke-miterlimit="10" stroke-linecap="round" stroke-linejoin="round"/>
<path d="M125.399 389.625L116.896 398.128" stroke="#5897D7" stroke-width="1.50349" stroke-miterlimit="10" stroke-linecap="round" stroke-linejoin="round"/>
<path d="M133.573 389.625L125.07 398.128" stroke="#5897D7" stroke-width="1.50349" stroke-miterlimit="10" stroke-linecap="round" stroke-linejoin="round"/>
</svg>
