<svg width="34" height="34" viewBox="0 0 34 34" fill="none" xmlns="http://www.w3.org/2000/svg">
<path d="M16.92 26.0239C12.1826 26.0239 8.34263 22.1839 8.34263 17.4466C8.34263 12.7106 12.1826 8.8706 16.92 8.8706C21.656 8.8706 25.496 12.7106 25.496 17.4466C25.496 22.1839 21.656 26.0239 16.92 26.0239ZM16.92 0.989256C7.82929 0.989256 0.459961 8.35728 0.459961 17.4466C0.459961 26.5373 7.82929 33.9053 16.92 33.9053C26.0093 33.9053 33.3786 26.5373 33.3786 17.4466C33.3786 8.35728 26.0093 0.989256 16.92 0.989256Z" fill="#5897D7"/>
<path d="M5.71583 15.824C7.24383 15.824 8.58516 14.9146 9.27983 13.552C10.6985 10.7733 13.5852 8.87065 16.9198 8.87065C20.2545 8.87065 23.1412 10.7733 24.5585 13.552C25.2545 14.9146 26.5945 15.824 28.1238 15.824C31.0038 15.824 32.9745 12.8066 31.7078 10.2186C29.0318 4.7533 23.4158 0.989306 16.9198 0.989306C10.4225 0.989306 4.80649 4.7533 2.13049 10.22C0.865159 12.8066 2.83449 15.824 5.71583 15.824Z" fill="#E0ECF9"/>
</svg>
